<svg xmlns="http://www.w3.org/2000/svg" width="1200" height="630" viewBox="0 0 1200 630" role="img" aria-labelledby="title desc">
  <title id="title">Артём Лизгаро - AI-маркетинг, сайты, боты и рост</title>
  <desc id="desc">Тёмная обложка портфолио с лаймовым акцентом и ключевыми направлениями работы.</desc>
  <defs>
    <linearGradient id="bg" x1="0" y1="0" x2="1" y2="1">
      <stop offset="0" stop-color="#0b0d0c"/>
      <stop offset="0.48" stop-color="#111412"/>
      <stop offset="1" stop-color="#171a18"/>
    </linearGradient>
    <radialGradient id="glow" cx="78%" cy="18%" r="72%">
      <stop offset="0" stop-color="#b9ff3d" stop-opacity="0.32"/>
      <stop offset="0.42" stop-color="#63ff88" stop-opacity="0.12"/>
      <stop offset="1" stop-color="#0b0d0c" stop-opacity="0"/>
    </radialGradient>
    <pattern id="grid" width="64" height="64" patternUnits="userSpaceOnUse">
      <path d="M64 0H0V64" fill="none" stroke="#f4f6f0" stroke-opacity="0.055"/>
    </pattern>
  </defs>
  <rect width="1200" height="630" fill="url(#bg)"/>
  <rect width="1200" height="630" fill="url(#grid)"/>
  <rect width="1200" height="630" fill="url(#glow)"/>
  <rect x="64" y="58" width="1072" height="514" rx="36" fill="#0b0d0c" fill-opacity="0.54" stroke="#f4f6f0" stroke-opacity="0.12"/>
  <text x="92" y="112" fill="#b9ff3d" font-family="Consolas, monospace" font-size="22" font-weight="700">AI / SITES / BOTS / GROWTH</text>
  <text x="90" y="248" fill="#f4f6f0" font-family="Arial Narrow, Arial, sans-serif" font-size="92" font-weight="900" letter-spacing="-1">АРТЁМ ЛИЗГАРО</text>
  <text x="94" y="318" fill="#9ea7a0" font-family="Arial, sans-serif" font-size="30">Собираю сайты, Telegram-боты, воронки и AI-системы</text>
  <text x="94" y="360" fill="#9ea7a0" font-family="Arial, sans-serif" font-size="30">в понятный первый шаг для роста проекта.</text>
  <g transform="translate(92 438)">
    <rect width="190" height="54" rx="27" fill="#b9ff3d"/>
    <text x="28" y="35" fill="#0b0d0c" font-family="Arial, sans-serif" font-size="20" font-weight="700">Обсудить проект</text>
    <rect x="212" width="144" height="54" rx="27" fill="#f4f6f0" fill-opacity="0.05" stroke="#f4f6f0" stroke-opacity="0.16"/>
    <text x="244" y="35" fill="#f4f6f0" font-family="Arial, sans-serif" font-size="20" font-weight="700">Блог</text>
    <rect x="378" width="178" height="54" rx="27" fill="#f4f6f0" fill-opacity="0.05" stroke="#f4f6f0" stroke-opacity="0.16"/>
    <text x="411" y="35" fill="#f4f6f0" font-family="Arial, sans-serif" font-size="20" font-weight="700">Продукты</text>
  </g>
  <g transform="translate(770 126)" fill="none" stroke="#b9ff3d" stroke-width="3" stroke-opacity="0.62">
    <rect x="0" y="0" width="250" height="78" rx="20"/>
    <rect x="54" y="128" width="250" height="78" rx="20"/>
    <rect x="-54" y="256" width="250" height="78" rx="20"/>
    <path d="M125 78v50M179 206v50"/>
    <circle cx="125" cy="39" r="8" fill="#b9ff3d"/>
    <circle cx="179" cy="167" r="8" fill="#b9ff3d"/>
    <circle cx="71" cy="295" r="8" fill="#b9ff3d"/>
  </g>
</svg>
