<svg xmlns="http://www.w3.org/2000/svg" width="1200" height="630" viewBox="0 0 1200 630" role="img" aria-labelledby="title desc">
  <title id="title">Life OS - личный AI-мозг</title>
  <desc id="desc">Обложка проекта Life OS: контекст, проекты, решения и AI-агенты.</desc>
  <defs>
    <linearGradient id="bg" x1="0" y1="0" x2="1" y2="1">
      <stop offset="0" stop-color="#b9ff3d"/>
      <stop offset="1" stop-color="#63ff88"/>
    </linearGradient>
    <pattern id="grid" width="58" height="58" patternUnits="userSpaceOnUse">
      <path d="M58 0H0V58" fill="none" stroke="#0b0d0c" stroke-opacity="0.08"/>
    </pattern>
  </defs>
  <rect width="1200" height="630" fill="url(#bg)"/>
  <rect width="1200" height="630" fill="url(#grid)"/>
  <rect x="58" y="58" width="1084" height="514" rx="38" fill="#0b0d0c" fill-opacity="0.88"/>
  <text x="92" y="116" fill="#b9ff3d" font-family="Consolas, monospace" font-size="22" font-weight="700">AI SYSTEM / CONTEXT / PROJECTS</text>
  <text x="90" y="250" fill="#f4f6f0" font-family="Arial Narrow, Arial, sans-serif" font-size="106" font-weight="900">LIFE OS</text>
  <text x="94" y="320" fill="#9ea7a0" font-family="Arial, sans-serif" font-size="31">Личный AI-мозг: контекст, цели, проекты, решения</text>
  <text x="94" y="362" fill="#9ea7a0" font-family="Arial, sans-serif" font-size="31">и агенты в одной рабочей базе.</text>
  <g transform="translate(770 122)">
    <rect x="0" y="0" width="258" height="72" rx="18" fill="#111412" stroke="#b9ff3d" stroke-opacity="0.7"/>
    <text x="24" y="45" fill="#f4f6f0" font-family="Arial, sans-serif" font-size="22" font-weight="700">Контекст</text>
    <rect x="-90" y="130" width="258" height="72" rx="18" fill="#111412" stroke="#b9ff3d" stroke-opacity="0.45"/>
    <text x="-66" y="175" fill="#f4f6f0" font-family="Arial, sans-serif" font-size="22" font-weight="700">Проекты</text>
    <rect x="92" y="260" width="258" height="72" rx="18" fill="#111412" stroke="#b9ff3d" stroke-opacity="0.45"/>
    <text x="116" y="305" fill="#f4f6f0" font-family="Arial, sans-serif" font-size="22" font-weight="700">AI-агенты</text>
    <path d="M129 72v58M39 202l182 58" fill="none" stroke="#b9ff3d" stroke-width="4" stroke-opacity="0.56"/>
  </g>
  <rect x="80" y="454" width="330" height="58" rx="29" fill="#b9ff3d"/>
  <text x="112" y="492" fill="#0b0d0c" font-family="Arial, sans-serif" font-size="22" font-weight="800">Хочу собрать свой AI-мозг</text>
</svg>
